<svg width="8437" height="2506" viewBox="0 0 8437 2506" fill="none" xmlns="http://www.w3.org/2000/svg">
<path d="M894.297 786.171C898.902 786.171 901.972 787.45 903.507 790.009C905.554 792.567 906.578 795.382 906.578 798.452C906.578 804.592 902.228 813.291 893.529 824.549C884.83 835.807 875.108 849.111 864.362 864.462C853.616 879.302 843.894 895.42 835.195 912.819C826.496 930.217 822.146 947.615 822.146 965.013C822.146 982.922 824.449 1002.88 829.054 1024.88C833.659 1046.89 839.288 1069.66 845.94 1093.2C853.104 1116.22 860.78 1138.99 868.967 1161.51C877.155 1184.02 885.086 1204.49 892.762 1222.91C895.32 1230.59 899.925 1242.36 906.578 1258.22C913.23 1273.57 920.65 1290.71 928.837 1309.65C937.024 1328.58 945.723 1348.03 954.934 1367.98C964.656 1387.94 973.867 1406.36 982.566 1423.25C991.265 1439.62 999.197 1453.18 1006.36 1463.93C1013.52 1474.16 1019.15 1479.28 1023.25 1479.28C1027.34 1479.28 1032.97 1474.93 1040.13 1466.23C1047.3 1457.02 1055.48 1444.48 1064.7 1428.62C1074.42 1412.24 1085.42 1393.31 1097.7 1371.82C1110.49 1349.82 1124.31 1325.77 1139.15 1299.67C1162.18 1259.24 1182.39 1222.91 1199.79 1190.68C1217.7 1158.44 1233.05 1131.06 1245.84 1108.55C1258.63 1086.03 1269.12 1068.89 1277.31 1057.12C1285.5 1044.84 1291.89 1038.7 1296.5 1038.7C1301.1 1038.7 1306.99 1042.54 1314.15 1050.21C1321.83 1057.89 1332.57 1071.7 1346.39 1091.66C1360.72 1111.62 1379.14 1138.99 1401.65 1173.79C1424.68 1208.59 1454.1 1253.1 1489.92 1307.34C1495.55 1316.04 1503.48 1328.58 1513.72 1344.96C1524.46 1361.33 1536.23 1379.5 1549.03 1399.45C1561.82 1419.41 1575.12 1439.88 1588.94 1460.86C1603.27 1481.33 1616.57 1500 1628.85 1516.89C1641.65 1533.78 1652.9 1547.85 1662.63 1559.1C1672.86 1569.85 1680.28 1575.22 1684.88 1575.22C1690 1575.22 1697.17 1568.57 1706.38 1555.27C1715.59 1541.45 1725.57 1524.82 1736.31 1505.38C1747.06 1485.42 1757.8 1464.44 1768.55 1442.44C1779.81 1420.43 1789.53 1400.73 1797.72 1383.33C1801.3 1375.66 1807.44 1362.35 1816.14 1343.42C1824.84 1324.49 1834.81 1301.72 1846.07 1275.11C1857.84 1248.5 1870.63 1219.08 1884.45 1186.84C1898.27 1154.09 1911.83 1120.57 1925.13 1086.29C1938.95 1052 1952.25 1017.72 1965.04 983.434C1977.84 948.638 1989.09 915.889 1998.82 885.186C2009.05 854.484 2016.98 826.852 2022.61 802.29C2028.75 777.216 2031.82 757.004 2031.82 741.652C2031.82 728.348 2027.47 716.323 2018.77 705.577C2010.07 694.831 1997.79 685.365 1981.93 677.177C1957.88 664.896 1936.39 654.918 1917.46 647.242C1899.03 639.055 1883.17 632.147 1869.87 626.518C1857.07 620.378 1847.35 615.005 1840.7 610.4C1834.05 605.282 1830.72 599.398 1830.72 592.746C1830.72 587.117 1832.77 582.767 1836.86 579.697C1840.96 576.627 1845.82 575.092 1851.45 575.092C1859.12 575.092 1869.1 577.394 1881.38 582C1893.66 586.093 1909.78 591.466 1929.74 598.119C1950.2 604.259 1975.53 611.167 2005.72 618.843C2036.43 626.518 2074.04 633.426 2118.56 639.567C2153.86 644.172 2186.36 647.498 2216.04 649.545C2245.72 651.08 2273.6 651.848 2299.7 651.848C2315.56 651.848 2328.87 651.592 2339.61 651.08C2350.36 650.569 2359.06 650.313 2365.71 650.313C2380.04 650.313 2389.76 652.36 2394.88 656.453C2400.51 660.035 2403.32 664.896 2403.32 671.037C2403.32 677.177 2401.27 682.039 2397.18 685.621C2393.09 688.691 2387.97 691.249 2381.83 693.296C2376.2 695.343 2369.8 696.622 2362.64 697.134C2355.99 697.646 2349.59 697.901 2343.45 697.901C2316.84 697.901 2294.07 698.669 2275.14 700.204C2256.72 701.228 2240.34 703.786 2226.01 707.88C2212.2 711.462 2199.66 717.346 2188.4 725.534C2177.15 733.209 2165.89 743.443 2154.63 756.236C2142.86 769.541 2129.3 790.009 2113.95 817.641C2098.6 844.761 2082.22 876.743 2064.83 913.586C2047.43 949.917 2029.01 989.575 2009.56 1032.56C1990.63 1075.54 1971.44 1119.29 1952 1163.81C1933.06 1207.82 1914.13 1251.31 1895.2 1294.3C1876.26 1337.28 1858.1 1376.94 1840.7 1413.27C1829.95 1435.78 1816.9 1463.93 1801.55 1497.7C1786.71 1530.96 1770.85 1566.27 1753.96 1603.62C1737.08 1640.98 1719.94 1678.33 1702.54 1715.69C1685.65 1752.53 1669.53 1785.79 1654.18 1815.47C1638.83 1845.15 1625.27 1869.2 1613.5 1887.62C1601.73 1906.55 1593.03 1916.02 1587.4 1916.02C1578.71 1916.02 1564.63 1897.6 1545.19 1860.76C1526.26 1824.42 1500.93 1772.23 1469.2 1704.17C1449.75 1661.7 1431.08 1620.25 1413.17 1579.83C1395.77 1538.89 1379.14 1500.51 1363.28 1464.69C1347.93 1428.36 1333.85 1395.1 1321.06 1364.91C1308.27 1334.72 1296.75 1308.62 1286.52 1286.62C1276.29 1264.62 1267.59 1247.48 1260.42 1235.19C1253.26 1222.91 1247.89 1216.77 1244.3 1216.77C1240.72 1216.77 1234.33 1223.68 1225.12 1237.5C1216.42 1251.31 1205.93 1268.97 1193.65 1290.46C1181.88 1311.95 1169.34 1335.74 1156.03 1361.84C1142.73 1387.94 1129.94 1413.01 1117.66 1437.06C1105.38 1461.11 1094.37 1482.86 1084.65 1502.31C1074.93 1521.75 1068.02 1535.57 1063.93 1543.75L948.794 1761.74C941.63 1774.53 935.489 1783.49 930.372 1788.61C925.767 1793.72 920.905 1796.28 915.788 1796.28C907.089 1796.28 898.902 1787.07 891.226 1768.65C885.086 1754.32 878.178 1737.69 870.502 1718.76C863.338 1699.82 855.663 1679.61 847.476 1658.12C839.8 1636.12 831.613 1613.6 822.914 1590.57C814.726 1567.04 806.539 1544.01 798.352 1521.49C783.512 1480.05 770.208 1439.88 758.438 1400.99C746.669 1361.59 735.156 1324.49 723.898 1289.69C712.641 1254.38 701.127 1222.15 689.358 1192.98C677.589 1163.81 664.54 1138.74 650.212 1117.76C635.885 1096.27 619.51 1079.64 601.089 1067.87C583.179 1056.1 562.455 1050.21 538.916 1050.21C527.147 1050.21 515.633 1050.98 504.376 1052.51C493.63 1053.54 483.14 1054.82 472.906 1056.35C463.183 1057.89 453.973 1059.42 445.274 1060.96C437.086 1061.98 429.922 1062.49 423.782 1062.49C406.384 1062.49 397.685 1056.1 397.685 1043.3C397.685 1036.14 399.988 1031.02 404.593 1027.95C409.198 1024.37 415.083 1021.3 422.247 1018.74C431.458 1015.67 443.739 1012.86 459.09 1010.3C474.441 1007.74 492.095 1003.9 512.051 998.785C532.52 993.668 555.291 986.76 580.364 978.061C605.438 969.362 632.558 957.593 661.726 942.753C702.662 922.285 736.691 902.584 763.811 883.651C790.932 864.718 813.191 848.088 830.589 833.76C848.499 818.92 862.059 807.407 871.27 799.22C880.992 790.52 888.668 786.171 894.297 786.171ZM2550.66 552.833C2580.85 552.833 2604.9 560.764 2622.81 576.627C2640.72 592.49 2649.68 615.005 2649.68 644.172C2649.68 663.617 2646.61 679.992 2640.47 693.296C2634.33 706.089 2626.39 716.579 2616.67 724.766C2606.95 732.442 2596.2 738.071 2584.43 741.652C2573.18 744.723 2561.92 746.258 2550.66 746.258C2540.94 746.258 2530.71 744.723 2519.96 741.652C2509.21 738.582 2499.24 733.465 2490.02 726.301C2480.81 718.626 2473.14 708.903 2467 697.134C2461.37 684.853 2458.55 669.758 2458.55 651.848C2458.55 632.915 2461.63 617.308 2467.77 605.027C2473.91 592.234 2481.58 582 2490.79 574.324C2500 566.649 2509.98 561.276 2520.73 558.205C2531.47 554.623 2541.45 552.833 2550.66 552.833ZM2659.66 804.592C2664.77 804.592 2667.33 810.477 2667.33 822.246C2667.33 829.922 2666.31 842.715 2664.26 860.624C2662.73 878.022 2660.68 896.7 2658.12 916.656C2654.03 948.382 2649.93 983.69 2645.84 1022.58C2641.75 1060.96 2637.65 1100.62 2633.56 1141.55C2629.98 1181.98 2626.39 1222.15 2622.81 1262.06C2619.74 1301.97 2616.93 1339.07 2614.37 1373.35C2611.81 1407.13 2609.76 1437.06 2608.23 1463.16C2606.69 1488.74 2605.93 1507.68 2605.93 1519.96C2605.93 1535.82 2606.95 1548.87 2609 1559.1C2611.04 1569.34 2613.6 1577.78 2616.67 1584.43C2619.74 1591.09 2623.07 1596.46 2626.65 1600.55C2630.74 1604.65 2634.84 1608.23 2638.93 1611.3C2643.54 1614.37 2649.17 1617.18 2655.82 1619.74C2662.47 1622.3 2669.63 1624.86 2677.31 1627.42C2684.99 1629.46 2692.66 1631.26 2700.34 1632.79C2708.52 1634.33 2715.94 1635.35 2722.6 1635.86C2733.34 1637.91 2742.04 1639.44 2748.69 1640.47C2755.35 1641.49 2758.67 1644.82 2758.67 1650.44C2758.67 1660.68 2747.67 1665.8 2725.67 1665.8C2710.31 1665.8 2694.96 1664.77 2679.61 1662.73C2664.26 1660.17 2648.4 1657.35 2632.02 1654.28C2616.16 1651.21 2599.53 1648.65 2582.13 1646.61C2564.73 1644.05 2546.06 1642.77 2526.1 1642.77C2507.68 1642.77 2491.05 1643.28 2476.21 1644.3C2461.37 1645.33 2447.81 1646.61 2435.53 1648.14C2423.25 1649.68 2411.73 1650.96 2400.99 1651.98C2390.24 1653 2379.5 1653.51 2368.75 1653.51C2360.05 1653.51 2352.12 1652.49 2344.96 1650.44C2337.79 1647.89 2334.21 1643.02 2334.21 1635.86C2334.21 1628.7 2338.05 1623.84 2345.72 1621.28C2353.91 1618.21 2362.1 1615.9 2370.29 1614.37C2380.52 1612.32 2390.5 1610.02 2400.22 1607.46C2409.94 1604.9 2418.64 1601.06 2426.32 1595.95C2434.5 1590.32 2441.16 1583.15 2446.27 1574.46C2451.9 1565.25 2455.48 1553.48 2457.02 1539.15C2459.07 1511 2460.6 1482.35 2461.63 1453.18C2462.65 1424.01 2463.42 1395.36 2463.93 1367.21C2464.44 1338.56 2464.7 1310.93 2464.7 1284.32C2464.7 1257.2 2464.7 1231.87 2464.7 1208.33C2464.7 1180.19 2464.7 1154.6 2464.7 1131.57C2464.7 1108.03 2464.18 1088.08 2463.16 1071.7C2462.14 1045.61 2459.07 1025.14 2453.95 1010.3C2449.34 995.459 2442.44 984.458 2433.23 977.294C2424.53 970.13 2413.27 965.524 2399.45 963.478C2385.64 960.919 2369.01 958.872 2349.56 957.337C2343.93 956.314 2339.33 954.523 2335.75 951.964C2332.67 949.406 2331.14 945.312 2331.14 939.683C2331.14 929.961 2338.82 924.332 2354.17 922.797C2361.84 922.285 2371.56 921.518 2383.33 920.494C2395.1 918.959 2408.66 916.912 2424.01 914.354C2439.88 911.795 2457.02 908.213 2475.44 903.608C2493.86 898.491 2513.31 891.583 2533.78 882.884C2556.29 873.673 2574.71 864.462 2589.04 855.251C2603.88 846.041 2615.9 837.853 2625.12 830.69C2634.33 823.014 2641.49 816.873 2646.61 812.268C2651.72 807.151 2656.07 804.592 2659.66 804.592ZM2800.09 952.732C2811.86 948.638 2827.21 944.8 2846.14 941.218C2865.59 937.125 2884.26 933.031 2902.17 928.937C2938.51 920.238 2968.7 908.469 2992.75 893.629C3016.8 878.79 3037.01 860.624 3053.38 839.133C3070.27 817.129 3084.6 792.056 3096.37 763.912C3108.14 735.256 3119.91 702.763 3131.68 666.432C3141.91 634.706 3152.14 612.446 3162.38 599.654C3173.12 586.349 3184.89 579.697 3197.69 579.697C3209.45 579.697 3217.64 584.047 3222.25 592.746C3226.85 601.445 3229.16 612.958 3229.16 627.286C3229.16 641.102 3226.85 659.012 3222.25 681.015C3217.64 702.507 3212.27 725.278 3206.13 749.328C3200.5 773.378 3195.38 797.173 3190.78 820.711C3186.17 843.738 3183.87 863.95 3183.87 881.349C3183.87 889.536 3185.4 896.956 3188.47 903.608C3192.06 909.748 3198.96 912.819 3209.2 912.819C3215.34 912.819 3222.76 912.307 3231.46 911.283C3240.16 910.26 3249.37 909.237 3259.09 908.213C3268.81 907.19 3278.79 906.166 3289.03 905.143C3299.77 904.119 3309.75 903.608 3318.96 903.608C3340.96 903.608 3351.97 910.516 3351.97 924.332C3351.97 931.496 3349.15 936.613 3343.52 939.683C3337.89 942.753 3330.22 944.289 3320.5 944.289C3313.33 944.289 3304.63 944.544 3294.4 945.056C3284.16 945.568 3273.16 946.847 3261.39 948.894C3249.62 950.429 3237.85 952.732 3226.09 955.802C3214.32 958.872 3203.31 962.966 3193.08 968.083C3178.75 975.247 3166.98 984.202 3157.77 994.948C3149.07 1005.69 3141.91 1016.7 3136.28 1027.95C3127.58 1045.86 3118.37 1070.42 3108.65 1101.64C3098.93 1132.85 3089.97 1167.65 3081.78 1206.03C3073.6 1243.89 3066.69 1283.81 3061.06 1325.77C3055.94 1367.21 3053.38 1407.38 3053.38 1446.27C3053.38 1501.03 3057.99 1548.1 3067.2 1587.5C3076.41 1626.39 3089.2 1658.63 3105.58 1684.22C3121.95 1709.8 3141.4 1728.74 3163.91 1741.02C3186.43 1752.79 3210.73 1758.67 3236.83 1758.67C3257.3 1758.67 3274.7 1755.86 3289.03 1750.23C3303.35 1744.09 3315.12 1736.41 3324.33 1727.2C3333.54 1717.48 3340.2 1706.99 3344.29 1695.73C3348.38 1683.96 3350.43 1672.45 3350.43 1661.19C3350.43 1647.37 3346.59 1635.86 3338.92 1626.65C3331.75 1616.93 3323.57 1607.72 3314.35 1599.02C3305.14 1590.32 3296.7 1580.85 3289.03 1570.62C3281.86 1560.38 3278.28 1547.08 3278.28 1530.7C3278.28 1510.24 3284.68 1493.09 3297.47 1479.28C3310.77 1465.46 3328.94 1458.55 3351.97 1458.55C3362.2 1458.55 3371.92 1460.35 3381.13 1463.93C3390.85 1467.51 3399.3 1473.39 3406.46 1481.58C3414.14 1489.77 3420.28 1500.26 3424.88 1513.05C3429.49 1525.33 3431.79 1540.17 3431.79 1557.57C3431.79 1587.76 3427.19 1617.95 3417.98 1648.14C3408.76 1677.82 3394.18 1704.69 3374.22 1728.74C3354.27 1752.27 3328.43 1771.46 3296.7 1786.3C3264.97 1801.65 3226.34 1809.33 3180.8 1809.33C3129.63 1809.33 3083.57 1798.84 3042.64 1777.86C3001.7 1756.37 2968.95 1727.46 2944.39 1691.13C2922.39 1657.35 2906.27 1619.23 2896.03 1576.76C2885.8 1533.78 2880.68 1490.28 2880.68 1446.27C2880.68 1395.1 2884.52 1345.72 2892.2 1298.13C2899.87 1250.03 2908.31 1206.54 2917.53 1167.65C2926.74 1128.25 2935.18 1094.47 2942.86 1066.33C2950.53 1037.68 2954.37 1016.95 2954.37 1004.16C2954.37 994.948 2951.81 989.319 2946.69 987.272C2941.58 985.225 2934.67 984.202 2925.97 984.202C2920.85 984.202 2913.69 984.458 2904.48 984.969C2895.78 985.481 2886.06 985.993 2875.31 986.504C2864.56 987.016 2853.31 987.528 2841.54 988.039C2829.77 988.551 2818.51 988.807 2807.76 988.807C2788.83 988.807 2779.36 983.434 2779.36 972.688C2779.36 963.989 2786.27 957.337 2800.09 952.732ZM3966.75 1107.78C3950.38 1107.78 3935.02 1105.22 3920.7 1100.1C3906.88 1094.99 3894.86 1087.31 3884.62 1077.08C3874.39 1066.33 3866.2 1053.03 3860.06 1037.16C3854.43 1020.79 3851.62 1001.86 3851.62 980.364C3851.62 965.013 3850.59 950.173 3848.55 935.845C3847.01 921.518 3843.43 908.725 3837.8 897.467C3832.17 886.21 3823.98 877.255 3813.24 870.603C3803 863.439 3789.19 859.857 3771.79 859.857C3750.81 859.857 3730.09 866.509 3709.62 879.813C3689.15 892.606 3670.73 912.051 3654.35 938.148C3637.98 964.245 3624.67 996.738 3614.44 1035.63C3604.21 1074.52 3599.09 1119.55 3599.09 1170.72C3599.09 1233.15 3605.23 1288.92 3617.51 1338.05C3630.3 1386.66 3648.47 1428.11 3672.01 1462.39C3696.06 1496.16 3725.22 1522.01 3759.51 1539.92C3793.79 1557.83 3832.43 1566.78 3875.41 1566.78C3903.55 1566.78 3928.63 1561.92 3950.63 1552.2C3973.15 1542.47 3991.82 1529.43 4006.66 1513.05C4021.5 1496.68 4032.76 1477.49 4040.44 1455.48C4048.62 1432.97 4052.72 1409.43 4052.72 1384.87C4052.72 1358.77 4049.39 1336.77 4042.74 1318.86C4036.6 1300.95 4029.69 1285.85 4022.01 1273.57C4014.85 1260.78 4007.94 1250.29 4001.29 1242.1C3995.15 1233.4 3992.08 1225.98 3992.08 1219.84C3992.08 1212.17 3996.17 1208.33 4004.36 1208.33C4012.04 1208.33 4021.76 1212.42 4033.53 1220.61C4045.81 1228.8 4057.58 1240.82 4068.84 1256.69C4080.61 1272.04 4090.58 1290.97 4098.77 1313.49C4106.96 1336 4111.05 1361.33 4111.05 1389.47C4111.05 1435.53 4103.38 1476.46 4088.03 1512.28C4073.19 1547.59 4052.46 1577.53 4025.85 1602.09C3999.24 1626.14 3967.52 1644.56 3930.68 1657.35C3893.83 1669.63 3853.92 1675.77 3810.94 1675.77C3760.79 1675.77 3714.99 1666.31 3673.54 1647.37C3632.09 1628.44 3596.27 1601.32 3566.08 1566.01C3536.4 1530.19 3513.12 1486.95 3496.24 1436.29C3479.86 1385.12 3471.67 1327.56 3471.67 1263.59C3471.67 1232.89 3474.49 1202.44 3480.12 1172.25C3485.75 1142.06 3493.42 1113.41 3503.14 1086.29C3512.87 1058.66 3524.12 1033.07 3536.92 1009.53C3549.71 985.993 3563.53 965.269 3578.36 947.359C3600.37 920.75 3622.88 898.491 3645.91 880.581C3668.94 862.16 3692.22 847.576 3715.76 836.83C3739.81 825.572 3764.37 817.641 3789.44 813.036C3815.03 808.43 3841.13 806.128 3867.74 806.128C3896.9 806.128 3924.28 810.221 3949.86 818.409C3975.45 826.596 3997.45 838.109 4015.87 852.949C4034.81 867.788 4049.65 885.698 4060.39 906.678C4071.14 927.146 4076.51 950.173 4076.51 975.758C4076.51 1000.32 4073.19 1021.04 4066.53 1037.93C4059.88 1054.31 4051.18 1067.87 4040.44 1078.61C4029.69 1088.85 4017.67 1096.27 4004.36 1100.87C3991.57 1105.48 3979.03 1107.78 3966.75 1107.78ZM4520.9 102.274C4528.06 102.274 4532.67 104.321 4534.71 108.415C4536.76 112.508 4537.78 116.602 4537.78 120.696C4537.78 127.86 4536.76 137.582 4534.71 149.863C4532.67 161.632 4530.11 177.495 4527.04 197.452C4523.97 217.408 4520.39 242.226 4516.29 271.905C4512.71 301.073 4508.87 336.636 4504.78 378.596C4499.15 437.443 4494.03 496.801 4489.43 556.67C4485.33 616.54 4481.5 674.875 4477.91 731.674C4474.84 788.474 4472.03 842.97 4469.47 895.165C4466.91 946.847 4464.61 994.436 4462.56 1037.93C4461.03 1081.43 4459.75 1119.8 4458.73 1153.07C4457.7 1186.33 4456.93 1212.68 4456.42 1232.12C4464.61 1208.07 4475.61 1184.02 4489.43 1159.97C4503.76 1135.92 4520.9 1114.18 4540.85 1094.73C4560.81 1075.29 4583.84 1059.68 4609.94 1047.91C4636.03 1035.63 4664.94 1029.49 4696.67 1029.49C4715.6 1029.49 4735.56 1032.05 4756.54 1037.16C4777.52 1041.77 4797.73 1050.47 4817.18 1063.26C4837.13 1076.05 4855.04 1093.45 4870.91 1115.45C4887.28 1136.95 4900.07 1164.83 4909.28 1199.12C4917.47 1232.38 4922.59 1265.13 4924.64 1297.37C4926.68 1329.09 4927.71 1363.38 4927.71 1400.22C4927.71 1427.85 4927.19 1458.55 4926.17 1492.33C4925.15 1526.1 4924.64 1560.38 4924.64 1595.18C4924.64 1618.21 4926.68 1636.37 4930.78 1649.68C4935.38 1662.47 4941.52 1672.19 4949.2 1678.84C4957.38 1685.5 4966.85 1689.85 4977.6 1691.89C4988.85 1693.94 5001.14 1695.22 5014.44 1695.73C5019.56 1696.24 5024.67 1696.75 5029.79 1697.27C5035.42 1697.78 5040.28 1698.8 5044.37 1700.34C5048.98 1701.87 5052.56 1704.17 5055.12 1707.24C5058.19 1710.31 5059.73 1714.41 5059.73 1719.52C5059.73 1725.15 5056.91 1730.27 5051.28 1734.88C5045.65 1739.48 5035.42 1741.78 5020.58 1741.78C5000.11 1741.78 4977.6 1739.48 4953.04 1734.88C4928.98 1729.76 4901.61 1727.2 4870.91 1727.2C4851.46 1727.2 4830.99 1729.25 4809.5 1733.34C4788.52 1737.43 4768.05 1742.04 4748.1 1747.16C4728.65 1751.76 4710.74 1756.11 4694.37 1760.21C4677.99 1764.3 4665.2 1766.35 4655.99 1766.35C4647.8 1766.35 4642.68 1765.07 4640.64 1762.51C4639.1 1759.44 4638.34 1756.62 4638.34 1754.07C4638.34 1749.97 4639.87 1746.9 4642.94 1744.85C4646.01 1742.3 4651.9 1739.74 4660.59 1737.18C4670.83 1733.6 4679.78 1730.27 4687.46 1727.2C4695.65 1724.13 4703.07 1720.55 4709.72 1716.45C4717.39 1711.85 4724.56 1704.43 4731.21 1694.2C4738.37 1683.45 4743.75 1666.31 4747.33 1642.77C4748.86 1629.98 4750.14 1615.14 4751.17 1598.25C4752.19 1580.85 4752.96 1562.69 4753.47 1543.75C4754.49 1524.31 4755.26 1504.35 4755.77 1483.88C4756.28 1463.42 4756.54 1442.95 4756.54 1422.48C4756.54 1388.71 4756.03 1356.98 4755 1327.3C4753.98 1297.11 4751.93 1272.29 4748.86 1252.85C4742.21 1209.86 4729.93 1175.84 4712.02 1150.76C4694.11 1125.69 4668.53 1113.15 4635.26 1113.15C4619.4 1113.15 4605.07 1116.22 4592.28 1122.36C4580 1128.5 4569 1136.43 4559.28 1146.16C4549.55 1155.88 4540.85 1166.88 4533.18 1179.16C4525.5 1191.44 4518.85 1203.98 4513.22 1216.77C4502.99 1238.78 4493.27 1266.92 4484.06 1301.2C4474.84 1335.49 4466.91 1372.59 4460.26 1412.5C4453.61 1451.9 4448.24 1492.33 4444.14 1533.78C4440.56 1574.71 4438.77 1613.09 4438.77 1648.91C4438.77 1665.8 4440.82 1679.61 4444.91 1690.36C4449 1700.59 4454.89 1709.03 4462.56 1715.69C4470.75 1721.83 4480.22 1726.69 4490.96 1730.27C4502.22 1733.85 4514.76 1737.18 4528.57 1740.25C4535.74 1741.78 4541.37 1743.83 4545.46 1746.39C4550.07 1748.44 4552.37 1752.53 4552.37 1758.67C4552.37 1770.44 4543.41 1776.32 4525.5 1776.32C4511.69 1776.32 4494.8 1774.79 4474.84 1771.72C4455.4 1768.14 4434.42 1764.3 4411.9 1760.21C4389.9 1755.6 4367.13 1751.76 4343.59 1748.69C4320.56 1745.11 4298.31 1743.32 4276.81 1743.32C4248.67 1743.32 4223.6 1744.6 4201.59 1747.16C4179.59 1749.72 4160.66 1750.99 4144.79 1750.99C4122.79 1750.99 4111.79 1744.09 4111.79 1730.27C4111.79 1724.64 4114.09 1720.29 4118.7 1717.22C4122.79 1713.64 4128.42 1711.85 4135.58 1711.85C4140.19 1711.85 4145.56 1712.11 4151.7 1712.62C4157.84 1713.13 4163.98 1713.38 4170.12 1713.38C4188.54 1713.38 4204.41 1711.34 4217.71 1707.24C4231.02 1702.64 4242.27 1694.96 4251.48 1684.22C4261.21 1673.47 4269.39 1659.14 4276.05 1641.23C4282.7 1622.81 4288.33 1599.79 4292.93 1572.15C4296 1554.24 4299.33 1526.87 4302.91 1490.02C4307 1453.18 4311.35 1410.45 4315.96 1361.84C4320.56 1312.72 4325.17 1259.5 4329.78 1202.19C4334.38 1144.37 4338.73 1085.78 4342.82 1026.42C4347.43 966.548 4351.78 907.701 4355.87 849.879C4359.97 791.544 4363.29 737.303 4365.85 687.156C4368.92 637.008 4371.22 592.746 4372.76 554.368C4374.81 515.478 4375.83 485.799 4375.83 465.331C4375.83 435.14 4373.01 411.345 4367.39 393.947C4362.27 376.038 4355.62 362.477 4347.43 353.267C4339.24 344.056 4330.03 338.171 4319.8 335.613C4310.07 333.054 4300.61 331.775 4291.4 331.775C4282.19 331.775 4272.21 332.798 4261.46 334.845C4250.72 336.38 4239.72 338.171 4228.46 340.218C4217.71 342.265 4206.97 344.312 4196.22 346.359C4185.99 347.894 4176.26 348.661 4167.05 348.661C4158.87 348.661 4153.24 347.126 4150.17 344.056C4146.58 340.474 4144.79 335.869 4144.79 330.24C4144.79 323.588 4146.84 318.471 4150.93 314.889C4155.03 311.307 4161.42 307.981 4170.12 304.91C4182.4 300.817 4195.71 296.723 4210.04 292.629C4224.36 288.536 4239.72 283.675 4256.09 278.046C4272.98 271.905 4290.89 264.741 4309.82 256.554C4328.75 247.855 4349.22 237.109 4371.22 224.316C4396.3 209.989 4416.77 195.661 4432.63 181.333C4448.49 166.494 4461.8 153.445 4472.54 142.187C4483.29 130.418 4491.99 120.952 4498.64 113.788C4505.8 106.112 4513.22 102.274 4520.9 102.274ZM5697.54 1377.19C5704.7 1388.96 5711.1 1404.82 5716.73 1424.78C5722.87 1444.74 5725.94 1464.95 5725.94 1485.42C5725.94 1522.77 5719.8 1556.29 5707.52 1585.97C5695.24 1615.14 5677.58 1639.95 5654.56 1660.42C5631.53 1680.38 5603.64 1695.73 5570.89 1706.48C5538.65 1717.22 5502.32 1722.6 5461.9 1722.6C5403.56 1722.6 5351.37 1712.87 5305.31 1693.43C5259.77 1673.47 5221.39 1645.84 5190.18 1610.53C5158.97 1575.22 5135.17 1533.26 5118.8 1484.65C5102.42 1435.53 5094.24 1381.8 5094.24 1323.46C5094.24 1270.76 5099.86 1222.91 5111.12 1179.93C5122.38 1136.95 5137.73 1098.57 5157.18 1064.8C5176.62 1031.02 5199.14 1001.6 5224.72 976.526C5250.31 951.452 5277.43 930.728 5306.08 914.354C5334.74 897.979 5363.91 885.954 5393.58 878.278C5423.26 870.091 5451.92 865.997 5479.55 865.997C5506.67 865.997 5534.82 869.579 5563.98 876.743C5593.15 883.907 5619.76 896.188 5643.81 913.586C5668.37 930.984 5688.33 954.011 5703.68 982.667C5719.54 1010.81 5727.47 1046.37 5727.47 1089.36C5727.47 1126.71 5721.84 1159.46 5710.59 1187.61C5699.84 1215.75 5685.51 1240.06 5667.6 1260.52C5649.69 1280.99 5629.23 1297.88 5606.2 1311.18C5583.68 1324.49 5560.4 1335.23 5536.35 1343.42C5512.81 1351.1 5489.53 1356.47 5466.5 1359.54C5443.99 1362.61 5424.03 1364.14 5406.63 1364.14C5381.56 1364.14 5357 1362.35 5332.95 1358.77C5309.41 1355.19 5290.99 1351.35 5277.68 1347.26C5279.73 1387.17 5285.87 1425.8 5296.1 1463.16C5306.85 1500 5321.95 1532.5 5341.39 1560.64C5360.84 1588.78 5384.89 1611.3 5413.54 1628.19C5442.71 1645.07 5476.74 1653.51 5515.63 1653.51C5542.75 1653.51 5566.03 1648.91 5585.47 1639.7C5605.43 1630.49 5621.81 1618.21 5634.6 1602.86C5647.39 1586.99 5656.86 1568.83 5663 1548.36C5669.14 1527.89 5672.21 1506.4 5672.21 1483.88C5672.21 1470.58 5671.19 1456.76 5669.14 1442.44C5667.6 1428.11 5664.53 1414.55 5659.93 1401.75C5656.86 1394.08 5654.3 1386.92 5652.25 1380.26C5650.21 1373.61 5649.18 1368.24 5649.18 1364.14C5649.18 1353.91 5653.79 1348.79 5663 1348.79C5667.6 1348.79 5672.98 1351.1 5679.12 1355.7C5685.77 1360.31 5691.91 1367.47 5697.54 1377.19ZM5274.61 1296.6C5287.92 1300.69 5303.01 1304.27 5319.9 1307.34C5336.78 1309.9 5358.02 1311.18 5383.61 1311.18C5413.29 1311.18 5440.66 1305.55 5465.74 1294.3C5490.81 1283.04 5512.3 1267.43 5530.21 1247.48C5548.12 1227.01 5562.19 1202.44 5572.43 1173.79C5582.66 1145.13 5587.78 1113.15 5587.78 1077.84C5587.78 1046.63 5584.2 1020.53 5577.03 999.553C5570.38 978.061 5561.42 960.919 5550.17 948.126C5538.91 935.334 5525.86 926.379 5511.02 921.262C5496.69 915.633 5481.85 912.819 5466.5 912.819C5447.06 912.819 5426.08 918.703 5403.56 930.472C5381.05 942.242 5360.07 962.71 5340.62 991.877C5321.69 1021.04 5305.83 1060.45 5293.03 1110.08C5280.75 1159.21 5274.61 1221.38 5274.61 1296.6ZM6075.92 804.592C6075.92 810.733 6075.66 819.432 6075.15 830.69C6074.64 841.435 6074.38 852.693 6074.38 864.462C6074.38 879.302 6075.15 895.165 6076.68 912.051C6078.73 928.426 6081.03 943.777 6083.59 958.105C6086.66 971.921 6089.48 983.69 6092.03 993.412C6095.1 1002.62 6097.66 1007.23 6099.71 1007.23C6101.76 1007.23 6104.57 999.809 6108.15 984.969C6112.25 970.13 6117.88 951.452 6125.04 928.937C6132.71 906.422 6142.44 882.372 6154.21 856.787C6165.98 830.69 6181.07 806.383 6199.49 783.868C6217.91 761.353 6239.92 742.676 6265.5 727.836C6291.6 712.997 6322.3 705.577 6357.61 705.577C6390.36 705.577 6417.74 711.206 6439.74 722.463C6462.25 733.721 6480.16 747.793 6493.47 764.679C6506.77 781.566 6516.24 799.987 6521.87 819.944C6527.5 839.389 6530.31 857.81 6530.31 875.208C6530.31 902.329 6526.73 926.123 6519.57 946.591C6512.4 966.548 6502.68 983.178 6490.4 996.483C6478.63 1009.79 6465.07 1020.02 6449.72 1027.19C6434.37 1033.84 6418.76 1037.16 6402.9 1037.16C6373.73 1037.16 6349.93 1030.26 6331.51 1016.44C6313.09 1002.62 6303.88 982.411 6303.88 955.802C6303.88 941.474 6305.67 929.193 6309.25 918.959C6313.35 908.725 6318.46 900.026 6324.6 892.862C6331.26 885.698 6338.93 879.813 6347.63 875.208C6356.84 870.091 6366.82 865.997 6377.57 862.927C6399.57 856.275 6414.41 848.088 6422.09 838.365C6430.27 828.643 6434.37 817.385 6434.37 804.592C6434.37 796.917 6432.83 789.497 6429.76 782.333C6427.2 775.169 6422.6 768.773 6415.94 763.144C6409.8 757.004 6401.62 752.142 6391.38 748.561C6381.66 744.979 6369.64 743.188 6355.31 743.188C6326.14 743.188 6300.55 750.096 6278.55 763.912C6256.55 777.216 6237.36 795.382 6220.98 818.409C6204.61 840.924 6191.05 867.021 6180.3 896.7C6169.56 926.379 6160.86 957.593 6154.21 990.342C6147.55 1022.58 6142.69 1055.33 6139.62 1088.59C6137.06 1121.34 6135.79 1152.04 6135.79 1180.7C6135.79 1206.79 6136.81 1235.19 6138.86 1265.9C6140.9 1296.09 6143.46 1326.53 6146.53 1357.24C6150.11 1387.94 6153.95 1417.87 6158.04 1447.04C6162.14 1476.21 6165.98 1502.82 6169.56 1526.87C6173.65 1550.92 6177.23 1571.64 6180.3 1589.04C6183.37 1606.44 6185.68 1618.46 6187.21 1625.11C6192.84 1648.14 6201.54 1664.26 6213.31 1673.47C6225.59 1682.17 6241.71 1686.52 6261.66 1686.52C6270.36 1686.52 6279.32 1686.26 6288.53 1685.75C6298.25 1685.24 6305.42 1684.98 6310.02 1684.98C6323.84 1684.98 6330.75 1690.1 6330.75 1700.34C6330.75 1708.52 6326.91 1713.9 6319.23 1716.45C6313.09 1719.01 6302.09 1720.55 6286.23 1721.06C6270.88 1721.57 6252.71 1722.08 6231.73 1722.6C6211.26 1723.11 6189 1723.87 6164.95 1724.9C6140.9 1725.92 6117.62 1727.71 6095.1 1730.27C6070.03 1733.34 6045.72 1737.69 6022.19 1743.32C5998.65 1748.44 5976.9 1753.55 5956.94 1758.67C5936.99 1763.28 5919.33 1767.37 5903.98 1770.95C5888.63 1774.53 5876.35 1776.32 5867.14 1776.32C5857.42 1776.32 5850.76 1774.28 5847.18 1770.18C5843.6 1766.09 5841.81 1761.74 5841.81 1757.14C5841.81 1749.46 5844.88 1744.09 5851.02 1741.02C5857.67 1737.43 5866.63 1733.85 5877.88 1730.27C5886.58 1727.71 5896.82 1725.15 5908.59 1722.6C5920.87 1719.52 5935.2 1714.41 5951.57 1707.24C5967.95 1700.08 5979.2 1690.61 5985.34 1678.84C5992 1666.56 5995.32 1648.14 5995.32 1623.58C5995.32 1615.9 5994.81 1603.11 5993.79 1585.2C5992.76 1566.78 5991.23 1545.03 5989.18 1519.96C5987.65 1494.89 5985.6 1467.51 5983.04 1437.83C5980.99 1407.64 5978.69 1376.94 5976.13 1345.72C5973.57 1314 5970.76 1282.53 5967.69 1251.31C5965.13 1220.1 5962.57 1190.93 5960.01 1163.81C5957.46 1136.18 5954.9 1111.62 5952.34 1090.13C5950.29 1068.63 5948.5 1051.49 5946.97 1038.7C5944.92 1023.35 5941.85 1011.32 5937.75 1002.62C5933.66 993.412 5928.8 986.504 5923.17 981.899C5917.54 977.294 5910.89 974.479 5903.21 973.456C5896.05 971.921 5888.12 971.153 5879.42 971.153H5847.95C5845.39 971.153 5842.07 971.153 5837.97 971.153C5834.39 970.641 5830.81 969.874 5827.23 968.85C5823.64 967.315 5820.57 965.269 5818.01 962.71C5815.97 960.151 5814.94 956.825 5814.94 952.732C5814.94 947.103 5817.25 943.009 5821.85 940.451C5826.46 937.892 5832.09 936.101 5838.74 935.078C5864.32 932.008 5887.35 927.658 5907.82 922.029C5928.8 916.4 5949.27 906.166 5969.22 891.327C5981.51 881.604 5994.3 868.812 6007.6 852.949C6021.42 836.574 6032.68 819.432 6041.38 801.522C6047.52 788.73 6054.17 782.333 6061.33 782.333C6067.98 782.333 6072.08 784.892 6073.61 790.009C6075.15 795.126 6075.92 799.987 6075.92 804.592ZM6817.35 941.218C6821.44 941.218 6825.02 942.242 6828.09 944.289C6831.16 946.335 6832.7 950.173 6832.7 955.802C6832.7 962.966 6829.12 969.106 6821.95 974.223C6815.81 979.34 6806.09 985.737 6792.79 993.412C6779.48 1001.09 6762.08 1013.11 6740.59 1029.49C6727.29 1039.21 6716.8 1049.96 6709.12 1061.73C6701.96 1073.49 6696.59 1086.29 6693 1100.1C6689.42 1113.92 6687.12 1129.27 6686.1 1146.16C6685.58 1162.53 6685.33 1180.19 6685.33 1199.12C6685.84 1237.5 6688.4 1275.11 6693 1311.95C6697.61 1348.79 6703.49 1383.33 6710.66 1415.57C6717.82 1447.3 6725.75 1476.21 6734.45 1502.31C6743.15 1527.89 6751.85 1549.38 6760.55 1566.78C6778.46 1603.62 6800.72 1633.05 6827.33 1655.05C6853.94 1677.05 6886.17 1688.05 6924.04 1688.05C6950.65 1688.05 6973.67 1681.66 6993.12 1668.87C7013.08 1656.07 7029.96 1639.44 7043.78 1618.97C7057.59 1597.99 7068.85 1574.46 7077.55 1548.36C7086.25 1521.75 7093.16 1494.89 7098.28 1467.76C7103.39 1440.64 7106.72 1414.29 7108.25 1388.71C7110.3 1363.12 7111.32 1340.86 7111.32 1321.93C7111.32 1271.27 7107.23 1232.64 7099.04 1206.03C7090.86 1179.42 7078.57 1161 7062.2 1150.76C7055.55 1146.16 7047.87 1142.32 7039.17 1139.25C7030.47 1136.18 7021.78 1133.62 7013.08 1131.57C7004.38 1129.01 6996.19 1126.97 6988.51 1125.43C6980.84 1123.39 6974.7 1121.85 6970.09 1120.83C6958.84 1118.27 6950.9 1114.94 6946.3 1110.85C6942.2 1106.76 6940.16 1101.13 6940.16 1093.96C6940.16 1086.8 6942.46 1081.17 6947.07 1077.08C6952.18 1072.47 6958.58 1070.17 6966.25 1070.17C6981.09 1070.17 7001.05 1071.45 7026.12 1074.01C7051.2 1076.56 7080.62 1077.84 7114.39 1077.84C7132.82 1077.84 7153.03 1076.82 7175.03 1074.77C7197.55 1072.22 7219.29 1069.4 7240.27 1066.33C7261.25 1062.75 7280.44 1059.17 7297.84 1055.58C7315.24 1051.49 7328.54 1047.91 7337.75 1044.84C7344.92 1042.28 7350.8 1040.75 7355.41 1040.23C7360.01 1039.21 7363.6 1038.7 7366.15 1038.7C7372.29 1038.7 7377.41 1040.23 7381.51 1043.3C7385.6 1046.37 7387.65 1050.72 7387.65 1056.35C7387.65 1061.98 7386.37 1066.59 7383.81 1070.17C7381.76 1073.24 7378.44 1076.31 7373.83 1079.38C7362.06 1087.57 7350.55 1095.24 7339.29 1102.41C7328.03 1109.06 7319.59 1118.78 7313.96 1131.57C7309.35 1142.32 7305.77 1155.37 7303.21 1170.72C7300.66 1186.07 7298.35 1205 7296.31 1227.52C7294.77 1249.52 7292.98 1275.87 7290.93 1306.58C7289.4 1337.28 7287.1 1373.87 7284.03 1416.34C7280.44 1462.9 7275.58 1512.8 7269.44 1566.01C7263.3 1619.23 7255.11 1674.75 7244.88 1732.57C7235.16 1789.88 7222.88 1849.24 7208.04 1910.65C7193.2 1972.05 7175.54 2034.22 7155.07 2097.16C7134.09 2160.62 7109.79 2217.42 7082.16 2267.56C7054.52 2318.22 7023.57 2361.21 6989.28 2396.51C6955 2431.82 6917.9 2458.69 6877.99 2477.11C6838.07 2496.04 6795.86 2505.51 6751.34 2505.51C6719.61 2505.51 6690.7 2500.65 6664.6 2490.92C6638.51 2481.2 6615.99 2467.38 6597.06 2449.48C6578.64 2432.08 6564.31 2411.1 6554.07 2386.54C6543.84 2361.97 6538.72 2334.6 6538.72 2304.41C6538.72 2272.17 6543.33 2242.49 6552.54 2215.37C6562.26 2188.76 6575.31 2165.48 6591.69 2145.52C6608.57 2126.08 6628.27 2110.98 6650.79 2100.24C6673.81 2089.49 6698.89 2084.12 6726.01 2084.12C6748.01 2084.12 6767.2 2087.7 6783.58 2094.86C6800.46 2102.03 6814.53 2111.49 6825.79 2123.26C6837.05 2135.03 6845.49 2148.34 6851.12 2163.18C6856.75 2178.53 6859.56 2194.13 6859.56 2210C6859.56 2223.81 6857.26 2236.61 6852.66 2248.37C6848.56 2260.66 6842.42 2271.15 6834.23 2279.84C6826.05 2289.05 6815.81 2296.22 6803.53 2301.34C6791.76 2306.45 6778.46 2309.01 6763.62 2309.01C6746.22 2309.01 6731.89 2306.2 6720.64 2300.57C6709.89 2294.94 6700.93 2288.03 6693.77 2279.84C6686.61 2271.66 6680.72 2262.45 6676.12 2252.21C6671.51 2242.49 6667.16 2233.53 6663.07 2225.35C6658.97 2217.16 6654.63 2210.25 6650.02 2204.62C6645.41 2198.99 6639.27 2196.18 6631.6 2196.18C6623.41 2196.18 6615.99 2199.25 6609.34 2205.39C6602.69 2211.53 6596.8 2219.46 6591.69 2229.19C6587.08 2239.42 6583.5 2250.68 6580.94 2262.96C6578.38 2275.75 6577.1 2288.54 6577.1 2301.34C6577.1 2325.9 6581.45 2348.41 6590.15 2368.88C6598.85 2389.35 6610.87 2406.75 6626.23 2421.08C6642.09 2435.4 6660.77 2446.4 6682.26 2454.08C6703.75 2462.27 6727.29 2466.36 6752.87 2466.36C6795.86 2466.36 6833.47 2456.64 6865.7 2437.19C6898.45 2417.75 6926.85 2393.19 6950.9 2363.51C6974.95 2333.83 6995.17 2301.08 7011.54 2265.26C7028.43 2229.95 7041.99 2196.18 7052.22 2163.94C7062.46 2131.71 7069.88 2103.31 7074.48 2078.74C7079.6 2054.69 7082.92 2038.83 7084.46 2031.15C7098.79 1940.58 7108 1862.29 7112.09 1796.28C7116.7 1730.27 7119 1678.08 7119 1639.7C7119 1626.91 7118.74 1615.9 7118.23 1606.69C7118.23 1596.97 7117.98 1588.78 7117.46 1582.13C7116.95 1574.46 7116.44 1567.8 7115.93 1562.17C7112.35 1572.92 7108 1584.18 7102.88 1595.95C7098.79 1606.18 7093.93 1617.7 7088.3 1630.49C7082.67 1642.77 7076.27 1655.05 7069.11 1667.33C7059.9 1683.19 7048.13 1698.8 7033.8 1714.15C7019.98 1728.99 7003.61 1742.55 6984.68 1754.83C6966.25 1766.6 6945.53 1776.32 6922.5 1784C6899.99 1791.16 6875.43 1794.75 6848.82 1794.75C6803.28 1794.75 6763.87 1785.28 6730.61 1766.35C6697.35 1747.41 6668.7 1722.08 6644.65 1690.36C6620.6 1658.63 6600.38 1622.3 6584.01 1581.36C6568.15 1539.92 6554.59 1496.93 6543.33 1452.41C6532.58 1407.9 6523.12 1363.38 6514.93 1318.86C6507.25 1274.34 6499.58 1232.89 6491.9 1194.51C6488.83 1178.65 6484.23 1168.16 6478.09 1163.04C6471.95 1157.93 6464.53 1155.37 6455.83 1155.37C6446.1 1155.37 6436.13 1156.39 6425.89 1158.44C6415.66 1160.48 6407.73 1161.51 6402.1 1161.51C6397.49 1161.51 6393.65 1160.23 6390.58 1157.67C6388.03 1155.11 6386.75 1151.79 6386.75 1147.69C6386.75 1138.99 6391.86 1133.11 6402.1 1130.04C6425.12 1123.9 6445.59 1118.01 6463.5 1112.38C6481.92 1106.76 6498.55 1101.13 6513.39 1095.5C6528.75 1089.87 6543.07 1084.24 6556.38 1078.61C6569.68 1072.47 6583.24 1066.07 6597.06 1059.42C6628.78 1044.07 6656.42 1029.23 6679.95 1014.9C6703.49 1000.58 6723.96 988.039 6741.36 977.294C6758.76 966.548 6773.34 957.849 6785.11 951.197C6797.39 944.544 6808.14 941.218 6817.35 941.218Z" fill="#CCA352"/>
<path d="M7764.84 696.009C7750.47 680.092 7436.55 406.719 7275.65 275.076C7543.73 97.227 7705.96 62.6074 7764.88 40.5139C7823.79 18.4204 7869.03 31.6836 7899.89 55.2423C8172.38 289.678 8314.76 650.537 8360.17 758.549C8405.58 866.561 8443.63 988.075 8435.04 1102.22C8426.45 1216.37 7897.35 1835.05 7877.27 1873.81C7860.05 1907.02 7849.57 1944.23 7849.57 1968.78C7849.57 2081.7 7877.8 2143.07 7898.66 2165.16C7915.36 2182.84 7927.71 2172.53 7931.8 2165.16C7960.85 2118.11 8019.69 2019.59 8022.63 2001.92C8025.58 1984.24 8013.94 1975.07 8001.77 1993.32C7967.4 2044.88 7931.8 2058.4 7931.8 2024.01C7931.8 2017.53 7931.8 1988.95 7951.44 1968.78C8042.27 1875.49 8099.66 1980.17 8090.14 2032.6C8075.1 2115.38 8001.77 2199.53 7966.17 2228.99C7937.69 2252.55 7895.39 2238.81 7877.8 2228.99C7800.22 2192.66 7745.17 2030.5 7731.71 1945.4C7719.76 1869.86 7723.21 1864.42 7740.44 1806.37C7757.66 1748.32 8145.95 1200.73 8157.34 1165.07C8200.48 1029.98 8174.43 975.98 8157.34 934.974C8032.04 718.548 7851.83 622.341 7816.96 610.089C7782.09 597.837 7771.08 702.922 7764.84 696.009Z" fill="#CCA352"/>
<path d="M7153.87 347.147C7144.52 341.319 7087.84 394.253 7060.67 421.448C7401.6 762.36 7713.34 933.057 7713.34 893.479C7713.34 871.626 7713.34 829.376 7723.54 782.756C7602.61 803.152 7165.55 354.431 7153.87 347.147Z" fill="#CCA352"/>
<path d="M7252.39 295.624C7244.46 290.68 7214.78 314.82 7191.73 337.893C7480.97 627.124 7739.79 781.369 7739.79 747.79C7739.79 729.25 7752 710.636 7729.59 698.256C7576.62 613.757 7262.3 301.805 7252.39 295.624Z" fill="#CCA352"/>
<path d="M6402.6 433.849C6498.93 638.545 6819.59 809.88 6967.59 885.135L7212.76 897.001L7463.7 915.485C7562.12 933.969 7556.67 938.159 7690.43 999.896C7958.78 1067.43 8013.52 1010.19 8013.52 897.001C7982.66 785.873 7756.28 752.946 7756.28 835.263C7805.67 1034.88 7584.12 915.485 7576.6 915.485C7569.07 915.485 6967.02 433.849 6681.04 170.455C6395.06 -92.9397 6282.19 177.98 6402.6 433.849Z" fill="#CCA352"/>
<path d="M2554.98 484.424L2592.43 589.788L2702.41 569.539L2629.89 654.654L2702.41 739.769L2592.43 719.52L2554.98 824.884L2517.53 719.52L2407.56 739.769L2480.08 654.654L2407.56 569.539L2517.53 589.788L2554.98 484.424Z" fill="#CCA352"/>
</svg>
